<svg width="78" height="60" viewBox="0 0 78 60" fill="none" xmlns="http://www.w3.org/2000/svg">
<path d="M5.72839 52.0443C5.72839 40.6167 4.8642 29.2014 4.8642 17.7885C4.8642 14.0079 4 10.4862 4 6.67394M4.86423 5.80975C7.39509 5.80975 9.81087 4.62837 12.4019 4.53746C17.7514 4.34976 23.133 4.51345 28.4856 4.51345H53.7394C59.0009 4.51345 64.2937 4.08135 69.487 4.08135C70.7527 4.08135 71.4074 3.83741 71.4074 5.35364C71.4074 7.48281 72.2248 9.54823 72.6797 11.5951C73.433 14.9848 72.7846 18.4179 73.3519 21.8214C74.0951 26.2809 73.5679 31.2035 73.5679 35.7206C73.5679 41.7227 74 47.7214 74 53.7727M7.45682 55.9332C14.6421 55.9332 21.8413 55.069 29.0617 55.069C35.2531 55.069 41.4344 54.6369 47.594 54.6369C55.115 54.6369 62.5829 54.2048 70.1111 54.2048M7.26979 9.12825C8.29328 9.87618 34.0309 29.9832 34.0309 29.9832C34.0309 29.9832 36.3219 32.352 37.5117 33.0319C39.078 33.9269 40.7524 31.9276 40.7524 31.9276C40.7524 31.9276 43.9438 28.9523 45.4815 27.4146C48.1949 24.7012 63.6884 10.6741 67.1666 9.12825" stroke="white" stroke-width="8" stroke-linecap="round"/>
</svg>
