<svg width="79" height="86" viewBox="0 0 79 86" fill="none" xmlns="http://www.w3.org/2000/svg">
<path d="M43.5142 19.1018C37.2748 19.1018 32.5681 21.2814 26.6147 23.2236C20.1136 25.3446 13.5387 27.8579 9.50918 33.7343C5.35838 39.7875 4.56299 46.0378 4.56299 53.1412C4.56299 57.1141 3.89498 61.1138 5.93693 64.6479C8.00712 68.231 10.3401 72.5271 13.8371 74.8838C18.1029 77.7586 23.9782 78.6598 28.813 80.2422C32.7813 81.5409 36.6382 81.5474 40.7663 81.5474H53.544C57.4659 81.5474 64.1463 82.7245 67.0086 79.2117C69.2752 76.4299 71.376 73.8099 72.2983 70.3841C72.8877 68.1949 74.3506 66.7305 74.4279 64.3731C74.4968 62.2719 74.4279 60.1557 74.4279 58.053C74.4279 54.3068 74.5862 50.6175 73.947 46.9241C73.0082 41.4997 71.2435 35.0284 67.6612 30.849C64.3994 27.0435 60.2502 23.9993 56.0171 21.2314C51.8128 18.4824 44.8792 18.4831 39.9896 18.4835L39.8046 18.4835M23.1112 6.73628C29.0472 1.78961 38.534 7.37156 44.7508 4.26318M36.095 38.2682C36.095 40.9956 34.5033 55.9411 36.4728 56.8164C41.4711 59.0378 46.7934 60.8983 51.5518 63.6174" stroke="white" stroke-width="8" stroke-linecap="round"/>
</svg>
